# xmcd CD database file
#
# Track frame offsets:
#	150
#	33934
#	57007
#	74814
#	89777
#	105494
#	130885
#	151607
#	174897
#	191461
#	229557
#
# Disc length: 4440 seconds
#
# Revision: 6
# Processed by: cddbd v1.5.2PL0 Copyright (c) Steve Scherf et al.
# Submitted via: CDex 1.79
#
DISCID=8611560b
DTITLE=Placebo - Once more with feeling - singles 1996-2004 [CD2 remix bonus disc)
DYEAR=2004
DGENRE=Alt. Rock
TTITLE0=Special K (Timo Maas remix)
TTITLE1=Without you I'm nothing (feat. David Bowie) (Unkle remix)
TTITLE2=Every you every me (infected by ''The scourge of the Earth'' mix)
TTITLE3=Protege moi (M83 remix)
TTITLE4=Slave to the wage (I can't believe it's a remix)
TTITLE5=Pure morning (Les Rythmes Digitales remix)
TTITLE6=Taste in men (Alpinestars Kamikaze skimix)
TTITLE7=Black-eyed (Placebo vs Le Vibrator mix)
TTITLE8=English summer rain (Freelance Hellraiser remix)
TTITLE9=This picture (Junior Sanchez remix)
TTITLE10=DATA
EXTD=YEAR: 2004
EXTT0=
EXTT1=
EXTT2=
EXTT3=
EXTT4=
EXTT5=
EXTT6=
EXTT7=
EXTT8=
EXTT9=
EXTT10=
PLAYORDER=
